<?xml version="1.0" standalone="no"?>
<!DOCTYPE svg PUBLIC "-//W3C//DTD SVG 20010904//EN"
 "http://www.w3.org/TR/2001/REC-SVG-20010904/DTD/svg10.dtd">
<svg version="1.0" xmlns="http://www.w3.org/2000/svg"
 width="482.000000pt" height="482.000000pt" viewBox="0 0 482.000000 482.000000"
 preserveAspectRatio="xMidYMid meet">
<metadata>
Created by potrace 1.11, written by Peter Selinger 2001-2013
</metadata>
<g transform="translate(0.000000,482.000000) scale(0.100000,-0.100000)"
fill="#000000" stroke="none">
<path d="M5 4808 c-3 -7 -4 -1091 -3 -2408 l3 -2395 2405 0 2405 0 3 2394 c1
1761 -1 2397 -9 2407 -16 20 -4797 21 -4804 2z m1026 -385 c73 -93 135 -170
139 -173 3 -3 19 -23 35 -45 16 -22 35 -47 42 -55 25 -31 85 -106 101 -125 10
-11 30 -38 46 -60 17 -22 33 -42 36 -45 3 -3 30 -36 60 -75 30 -38 57 -72 60
-75 3 -3 18 -23 35 -45 16 -22 34 -45 40 -51 22 -24 52 -61 80 -99 16 -22 32
-42 35 -45 3 -3 25 -30 50 -60 24 -30 48 -56 52 -58 5 -2 8 -8 8 -13 0 -5 39
-57 86 -115 48 -59 92 -114 100 -123 7 -9 50 -63 96 -121 45 -58 88 -112 95
-120 6 -8 40 -51 75 -95 34 -44 67 -85 73 -91 5 -6 19 -23 30 -38 11 -16 26
-34 33 -41 6 -8 12 -20 12 -27 0 -7 -60 -74 -134 -147 -148 -148 -134 -143
-190 -66 -17 22 -33 42 -36 45 -3 3 -30 37 -60 75 -30 39 -57 72 -60 75 -3 3
-41 50 -85 105 -44 55 -82 102 -85 105 -3 3 -18 23 -35 45 -16 22 -34 45 -40
51 -19 22 -50 60 -79 99 -17 22 -33 42 -36 45 -3 3 -30 37 -60 75 -30 39 -57
72 -60 75 -3 3 -19 23 -35 45 -17 22 -32 42 -35 45 -3 3 -22 26 -43 52 -21 26
-43 53 -50 60 -7 7 -31 38 -53 68 -23 30 -50 64 -60 75 -11 11 -32 38 -49 60
-33 45 -36 48 -97 125 -86 107 -78 230 -78 -1261 l0 -1323 -200 -200 -200
-201 0 1918 0 1917 154 0 153 0 134 -167z m3147 43 l3 -119 -193 -194 c-106
-106 -196 -193 -200 -193 -10 0 -11 614 -1 624 4 3 93 5 197 4 l191 -3 3 -119z
m2 -2326 l0 -1860 -173 0 -174 0 -36 40 c-21 21 -37 41 -37 44 0 5 -312 398
-335 422 -5 6 -19 23 -30 38 -11 15 -28 37 -38 49 -10 12 -26 31 -35 42 -9 11
-30 38 -47 60 -16 22 -39 51 -51 65 -20 22 -262 326 -339 425 -16 21 -43 54
-60 75 -16 20 -43 53 -60 75 -28 35 -75 94 -113 140 -10 11 -30 38 -47 60 -16
22 -42 54 -56 70 -15 17 -70 85 -122 151 l-95 122 140 138 139 139 20 -25 c11
-14 28 -34 37 -45 9 -11 30 -38 47 -60 16 -22 37 -49 46 -60 21 -24 86 -104
102 -125 30 -38 172 -216 177 -220 3 -3 24 -30 46 -60 23 -30 50 -64 60 -75
11 -11 32 -38 48 -60 17 -22 32 -42 36 -45 3 -3 24 -30 47 -60 23 -30 53 -68
67 -84 14 -16 26 -32 26 -35 0 -3 13 -19 28 -36 15 -16 43 -50 62 -75 19 -25
37 -47 40 -50 3 -3 18 -23 35 -45 16 -22 34 -45 40 -51 15 -18 30 -36 125
-158 33 -43 61 -67 70 -61 7 4 10 457 10 1303 l0 1297 197 197 c109 109 199
198 200 198 2 0 3 -837 3 -1860z m-3190 -1595 l0 -265 -200 0 -200 0 0 67 0
68 197 197 c109 109 199 198 200 198 2 0 3 -119 3 -265z"/>
</g>
</svg>
